# xmcd
#
# Track frame offsets: 
#        151
#        14076
#        24717
#        34973
#        46230
#        59939
#        83679
#        102419
#        113225
#        126577
#        140190
#        152628
#
# Disc length: 2208 seconds
#
# Revision: 0
# Processed by: cddbd v1.5.2PL0 Copyright (c) Steve Scherf et al.
# Submitted via: ExactAudioCopy v1.0b3
#
DISCID=b4089e0c
DTITLE=Santa Cruz River Band - The Mexican Album
DYEAR=1900
DGENRE=Latin
TTITLE0=El Gustito
TTITLE1=Canción Mixteca
TTITLE2=El Abandonado
TTITLE3=El Sinaloesne
TTITLE4=La Doña del Pueblo
TTITLE5=La Llorona
TTITLE6=Rogaciano
TTITLE7=La Barca de Oro
TTITLE8=Vaquilla Colorado
TTITLE9=La Golondrina
TTITLE10=Alam Llanera
TTITLE11=Volver Volver
EXTD=
EXTT0=
EXTT1=
EXTT2=
EXTT3=
EXTT4=
EXTT5=
EXTT6=
EXTT7=
EXTT8=
EXTT9=
EXTT10=
EXTT11=
PLAYORDER=
